<svg width="90" height="130" viewBox="0 0 90 130" fill="none" xmlns="http://www.w3.org/2000/svg">
<path d="M53.5 31.707C48.625 47.0076 36.6723 59.1334 21.2676 64.1592L20.2246 64.5L21.2676 64.8408C36.672 69.8665 48.6248 81.9919 53.5 97.292C58.3752 81.9919 70.328 69.8665 85.7324 64.8408L86.7764 64.5L85.7324 64.1592C70.3277 59.1334 58.375 47.0076 53.5 31.707Z" fill="#D39C4A" stroke="#F9F9F7" stroke-width="2"/>
<path d="M20.7031 111.7C19.7165 115.791 16.6792 119.077 12.679 120.382L11.7031 120.7L12.679 121.019C16.6792 122.324 19.7165 125.61 20.7031 129.7C21.6897 125.61 24.727 122.324 28.7272 121.019L29.7031 120.7L28.7272 120.382C24.727 119.077 21.6897 115.791 20.7031 111.7Z" fill="#D39C4A" fill-opacity="0.47"/>
<path d="M13.5 0.100098C12.0201 6.2357 7.46416 11.1649 1.46386 13.1225L0 13.6001L1.46386 14.0777C7.46416 16.0353 12.0201 20.9645 13.5 27.1001C14.9799 20.9645 19.5358 16.0353 25.5361 14.0777L27 13.6001L25.5361 13.1225C19.5358 11.1649 14.9799 6.2357 13.5 0.100098Z" fill="#D39C4A" fill-opacity="0.7"/>
</svg>
